<?xml version="1.0" encoding="UTF-8" standalone="no"?>
<!DOCTYPE svg PUBLIC "-//W3C//DTD SVG 1.1//EN"
 "http://www.w3.org/Graphics/SVG/1.1/DTD/svg11.dtd">
<!-- Generated by graphviz version 7.0.6 (20230106.0513)
 -->
<!-- Title: dependency&#45;cruiser output Pages: 1 -->
<svg width="298pt" height="234pt"
 viewBox="0.00 0.00 298.00 234.00" xmlns="http://www.w3.org/2000/svg" xmlns:xlink="http://www.w3.org/1999/xlink">
<g id="graph0" class="graph" transform="scale(1 1) rotate(0) translate(4 230)">
<title>dependency&#45;cruiser output</title>
<polygon fill="white" stroke="none" points="-4,4 -4,-230 294,-230 294,4 -4,4"/>
<g id="clust1" class="cluster">
<title>cluster_src</title>
<path fill="#ffffff" stroke="black" stroke-width="2" d="M20,-8C20,-8 270,-8 270,-8 276,-8 282,-14 282,-20 282,-20 282,-206 282,-206 282,-212 276,-218 270,-218 270,-218 20,-218 20,-218 14,-218 8,-212 8,-206 8,-206 8,-20 8,-20 8,-14 14,-8 20,-8"/>
<text text-anchor="middle" x="145" y="-206.8" font-family="Helvetica,sans-Serif" font-weight="bold" font-size="9.00">src</text>
</g>
<g id="clust2" class="cluster">
<title>cluster_src/pages</title>
<path fill="#ffffff" stroke="black" stroke-width="2" d="M28,-16C28,-16 106,-16 106,-16 112,-16 118,-22 118,-28 118,-28 118,-180 118,-180 118,-186 112,-192 106,-192 106,-192 28,-192 28,-192 22,-192 16,-186 16,-180 16,-180 16,-28 16,-28 16,-22 22,-16 28,-16"/>
<text text-anchor="middle" x="67" y="-180.8" font-family="Helvetica,sans-Serif" font-weight="bold" font-size="9.00">pages</text>
</g>
<g id="clust3" class="cluster">
<title>cluster_src/pages/api</title>
<path fill="#ffffff" stroke="black" stroke-width="2" d="M36,-80C36,-80 98,-80 98,-80 104,-80 110,-86 110,-92 110,-92 110,-154 110,-154 110,-160 104,-166 98,-166 98,-166 36,-166 36,-166 30,-166 24,-160 24,-154 24,-154 24,-92 24,-92 24,-86 30,-80 36,-80"/>
<text text-anchor="middle" x="67" y="-154.8" font-family="Helvetica,sans-Serif" font-weight="bold" font-size="9.00">api</text>
</g>
<g id="clust4" class="cluster">
<title>cluster_src/pages/api/trpc</title>
<path fill="#ffffff" stroke="black" stroke-width="2" d="M44,-88C44,-88 90,-88 90,-88 96,-88 102,-94 102,-100 102,-100 102,-128 102,-128 102,-134 96,-140 90,-140 90,-140 44,-140 44,-140 38,-140 32,-134 32,-128 32,-128 32,-100 32,-100 32,-94 38,-88 44,-88"/>
<text text-anchor="middle" x="67" y="-128.8" font-family="Helvetica,sans-Serif" font-weight="bold" font-size="9.00">trpc</text>
</g>
<g id="clust7" class="cluster">
<title>cluster_src/utils</title>
<path fill="#ffffff" stroke="black" stroke-width="2" d="M146,-18C146,-18 192,-18 192,-18 198,-18 204,-24 204,-30 204,-30 204,-58 204,-58 204,-64 198,-70 192,-70 192,-70 146,-70 146,-70 140,-70 134,-64 134,-58 134,-58 134,-30 134,-30 134,-24 140,-18 146,-18"/>
<text text-anchor="middle" x="169" y="-58.8" font-family="Helvetica,sans-Serif" font-weight="bold" font-size="9.00">utils</text>
</g>
<g id="clust5" class="cluster">
<title>cluster_src/server</title>
<path fill="#ffffff" stroke="black" stroke-width="2" d="M138,-80C138,-80 262,-80 262,-80 268,-80 274,-86 274,-92 274,-92 274,-154 274,-154 274,-160 268,-166 262,-166 262,-166 138,-166 138,-166 132,-166 126,-160 126,-154 126,-154 126,-92 126,-92 126,-86 132,-80 138,-80"/>
<text text-anchor="middle" x="200" y="-154.8" font-family="Helvetica,sans-Serif" font-weight="bold" font-size="9.00">server</text>
</g>
<g id="clust6" class="cluster">
<title>cluster_src/server/routers</title>
<path fill="#ffffff" stroke="black" stroke-width="2" d="M146,-88C146,-88 192,-88 192,-88 198,-88 204,-94 204,-100 204,-100 204,-128 204,-128 204,-134 198,-140 192,-140 192,-140 146,-140 146,-140 140,-140 134,-134 134,-128 134,-128 134,-100 134,-100 134,-94 140,-88 146,-88"/>
<text text-anchor="middle" x="169" y="-128.8" font-family="Helvetica,sans-Serif" font-weight="bold" font-size="9.00">routers</text>
</g>
<!-- src/pages/_app.tsx -->
<g id="node1" class="node">
<title>src/pages/_app.tsx</title>
<g id="a_node1"><a xlink:href="src/pages/_app.tsx" xlink:title="_app.tsx">
<path fill="#bbfeff" stroke="black" d="M88,-72C88,-72 46,-72 46,-72 43,-72 40,-69 40,-66 40,-66 40,-60 40,-60 40,-57 43,-54 46,-54 46,-54 88,-54 88,-54 91,-54 94,-57 94,-60 94,-60 94,-66 94,-66 94,-69 91,-72 88,-72"/>
<text text-anchor="start" x="49.5" y="-60.8" font-family="Helvetica,sans-Serif" font-size="9.00">_app.tsx</text>
</a>
</g>
</g>
<!-- src/utils/trpc.ts -->
<g id="node2" class="node">
<title>src/utils/trpc.ts</title>
<g id="a_node2"><a xlink:href="src/utils/trpc.ts" xlink:title="trpc.ts">
<path fill="#ddfeff" stroke="black" d="M190,-44C190,-44 148,-44 148,-44 145,-44 142,-41 142,-38 142,-38 142,-32 142,-32 142,-29 145,-26 148,-26 148,-26 190,-26 190,-26 193,-26 196,-29 196,-32 196,-32 196,-38 196,-38 196,-41 193,-44 190,-44"/>
<text text-anchor="start" x="156.5" y="-32.8" font-family="Helvetica,sans-Serif" font-size="9.00">trpc.ts</text>
</a>
</g>
</g>
<!-- src/pages/_app.tsx&#45;&gt;src/utils/trpc.ts -->
<g id="edge1" class="edge">
<title>src/pages/_app.tsx&#45;&gt;src/utils/trpc.ts</title>
<path fill="none" stroke="#000000" stroke-width="2" stroke-opacity="0.200000" d="M94.27,-55.64C106.12,-52.33 120.28,-48.36 133.02,-44.8"/>
<polygon fill="#000000" fill-opacity="0.200000" stroke="#000000" stroke-width="2" stroke-opacity="0.200000" points="133.43,-46.86 138.64,-43.22 132.3,-42.82 133.43,-46.86"/>
</g>
<!-- src/pages/api/trpc/[trpc].ts -->
<g id="node3" class="node">
<title>src/pages/api/trpc/[trpc].ts</title>
<g id="a_node3"><a xlink:href="src/pages/api/trpc/[trpc].ts" xlink:title="[trpc].ts">
<path fill="#ddfeff" stroke="black" d="M88,-114C88,-114 46,-114 46,-114 43,-114 40,-111 40,-108 40,-108 40,-102 40,-102 40,-99 43,-96 46,-96 46,-96 88,-96 88,-96 91,-96 94,-99 94,-102 94,-102 94,-108 94,-108 94,-111 91,-114 88,-114"/>
<text text-anchor="start" x="52" y="-102.8" font-family="Helvetica,sans-Serif" font-size="9.00">[trpc].ts</text>
</a>
</g>
</g>
<!-- src/server/routers/_app.ts -->
<g id="node4" class="node">
<title>src/server/routers/_app.ts</title>
<g id="a_node4"><a xlink:href="src/server/routers/_app.ts" xlink:title="_app.ts">
<path fill="#ddfeff" stroke="black" d="M190,-114C190,-114 148,-114 148,-114 145,-114 142,-111 142,-108 142,-108 142,-102 142,-102 142,-99 145,-96 148,-96 148,-96 190,-96 190,-96 193,-96 196,-99 196,-102 196,-102 196,-108 196,-108 196,-111 193,-114 190,-114"/>
<text text-anchor="start" x="153.5" y="-102.8" font-family="Helvetica,sans-Serif" font-size="9.00">_app.ts</text>
</a>
</g>
</g>
<!-- src/pages/api/trpc/[trpc].ts&#45;&gt;src/server/routers/_app.ts -->
<g id="edge2" class="edge">
<title>src/pages/api/trpc/[trpc].ts&#45;&gt;src/server/routers/_app.ts</title>
<path fill="none" stroke="#000000" stroke-width="2" stroke-opacity="0.200000" d="M94.27,-105C106.01,-105 120.01,-105 132.65,-105"/>
<polygon fill="#000000" fill-opacity="0.200000" stroke="#000000" stroke-width="2" stroke-opacity="0.200000" points="132.53,-107.1 138.53,-105 132.53,-102.9 132.53,-107.1"/>
</g>
<!-- src/server/trpc.ts -->
<g id="node6" class="node">
<title>src/server/trpc.ts</title>
<g id="a_node6"><a xlink:href="src/server/trpc.ts" xlink:title="trpc.ts">
<path fill="#ddfeff" stroke="black" d="M260,-114C260,-114 218,-114 218,-114 215,-114 212,-111 212,-108 212,-108 212,-102 212,-102 212,-99 215,-96 218,-96 218,-96 260,-96 260,-96 263,-96 266,-99 266,-102 266,-102 266,-108 266,-108 266,-111 263,-114 260,-114"/>
<text text-anchor="start" x="226.5" y="-102.8" font-family="Helvetica,sans-Serif" font-size="9.00">trpc.ts</text>
</a>
</g>
</g>
<!-- src/server/routers/_app.ts&#45;&gt;src/server/trpc.ts -->
<g id="edge4" class="edge">
<title>src/server/routers/_app.ts&#45;&gt;src/server/trpc.ts</title>
<path fill="none" stroke="#000000" stroke-width="2" stroke-opacity="0.200000" d="M196.49,-105C198.7,-105 200.97,-105 203.24,-105"/>
<polygon fill="#000000" fill-opacity="0.200000" stroke="#000000" stroke-width="2" stroke-opacity="0.200000" points="202.9,-107.1 208.9,-105 202.9,-102.9 202.9,-107.1"/>
</g>
<!-- src/pages/index.tsx -->
<g id="node5" class="node">
<title>src/pages/index.tsx</title>
<g id="a_node5"><a xlink:href="src/pages/index.tsx" xlink:title="index.tsx">
<path fill="#bbfeff" stroke="black" d="M88,-42C88,-42 46,-42 46,-42 43,-42 40,-39 40,-36 40,-36 40,-30 40,-30 40,-27 43,-24 46,-24 46,-24 88,-24 88,-24 91,-24 94,-27 94,-30 94,-30 94,-36 94,-36 94,-39 91,-42 88,-42"/>
<text text-anchor="start" x="49" y="-30.8" font-family="Helvetica,sans-Serif" font-size="9.00">index.tsx</text>
</a>
</g>
</g>
<!-- src/pages/index.tsx&#45;&gt;src/utils/trpc.ts -->
<g id="edge3" class="edge">
<title>src/pages/index.tsx&#45;&gt;src/utils/trpc.ts</title>
<path fill="none" stroke="#000000" stroke-width="2" stroke-opacity="0.200000" d="M94.27,-33.53C106.01,-33.76 120.01,-34.04 132.65,-34.29"/>
<polygon fill="#000000" fill-opacity="0.200000" stroke="#000000" stroke-width="2" stroke-opacity="0.200000" points="132.49,-36.39 138.53,-34.41 132.57,-32.19 132.49,-36.39"/>
</g>
</g>
</svg>
