<svg width="685" height="356" viewBox="0 0 685 356" fill="none" xmlns="http://www.w3.org/2000/svg">
<rect width="685" height="356" fill="white"/>
<circle cx="342.5" cy="177.5" r="167.5" fill="#FB7185"/>
<circle cx="407" cy="210" r="95" fill="#A3E635"/>
<circle cx="459" cy="235" r="37" fill="#60A5FA"/>
<path d="M447.767 233.455V234.307H444.375V233.455H447.767ZM445.364 231.886H446.369V238.125C446.369 238.409 446.411 238.622 446.493 238.764C446.578 238.903 446.686 238.997 446.817 239.045C446.95 239.091 447.091 239.114 447.239 239.114C447.349 239.114 447.44 239.108 447.511 239.097C447.582 239.082 447.639 239.071 447.682 239.062L447.886 239.966C447.818 239.991 447.723 240.017 447.601 240.043C447.479 240.071 447.324 240.085 447.136 240.085C446.852 240.085 446.574 240.024 446.301 239.902C446.031 239.78 445.807 239.594 445.628 239.344C445.452 239.094 445.364 238.778 445.364 238.398V231.886ZM449.557 240V231.273H452.506C453.188 231.273 453.747 231.389 454.185 231.622C454.622 231.852 454.946 232.169 455.156 232.572C455.366 232.976 455.472 233.435 455.472 233.949C455.472 234.463 455.366 234.919 455.156 235.317C454.946 235.714 454.624 236.027 454.189 236.254C453.754 236.479 453.199 236.591 452.523 236.591H450.136V235.636H452.489C452.955 235.636 453.33 235.568 453.614 235.432C453.901 235.295 454.108 235.102 454.236 234.852C454.366 234.599 454.432 234.298 454.432 233.949C454.432 233.599 454.366 233.294 454.236 233.033C454.105 232.771 453.896 232.57 453.609 232.428C453.322 232.283 452.943 232.21 452.472 232.21H450.614V240H449.557ZM453.665 236.08L455.812 240H454.585L452.472 236.08H453.665ZM457.233 240V231.273H460.181C460.866 231.273 461.426 231.396 461.86 231.643C462.298 231.888 462.622 232.219 462.832 232.636C463.042 233.054 463.147 233.52 463.147 234.034C463.147 234.548 463.042 235.016 462.832 235.436C462.625 235.857 462.304 236.192 461.869 236.442C461.434 236.689 460.877 236.812 460.199 236.812H458.085V235.875H460.164C460.633 235.875 461.01 235.794 461.294 235.632C461.578 235.47 461.784 235.251 461.912 234.976C462.042 234.697 462.108 234.384 462.108 234.034C462.108 233.685 462.042 233.372 461.912 233.097C461.784 232.821 461.576 232.605 461.289 232.449C461.002 232.29 460.622 232.21 460.147 232.21H458.289V240H457.233ZM471.873 234H470.816C470.753 233.696 470.644 233.429 470.488 233.199C470.334 232.969 470.147 232.776 469.925 232.619C469.706 232.46 469.463 232.341 469.196 232.261C468.929 232.182 468.651 232.142 468.361 232.142C467.833 232.142 467.354 232.276 466.925 232.543C466.499 232.81 466.159 233.203 465.907 233.723C465.657 234.243 465.532 234.881 465.532 235.636C465.532 236.392 465.657 237.03 465.907 237.55C466.159 238.07 466.499 238.463 466.925 238.73C467.354 238.997 467.833 239.131 468.361 239.131C468.651 239.131 468.929 239.091 469.196 239.011C469.463 238.932 469.706 238.814 469.925 238.658C470.147 238.499 470.334 238.304 470.488 238.074C470.644 237.841 470.753 237.574 470.816 237.273H471.873C471.793 237.719 471.648 238.118 471.438 238.47C471.228 238.822 470.966 239.122 470.654 239.369C470.341 239.614 469.99 239.8 469.601 239.928C469.215 240.055 468.801 240.119 468.361 240.119C467.617 240.119 466.955 239.938 466.375 239.574C465.796 239.21 465.34 238.693 465.007 238.023C464.675 237.352 464.509 236.557 464.509 235.636C464.509 234.716 464.675 233.92 465.007 233.25C465.34 232.58 465.796 232.062 466.375 231.699C466.955 231.335 467.617 231.153 468.361 231.153C468.801 231.153 469.215 231.217 469.601 231.345C469.99 231.473 470.341 231.661 470.654 231.908C470.966 232.152 471.228 232.45 471.438 232.803C471.648 233.152 471.793 233.551 471.873 234Z" fill="black"/>
<path d="M354.705 188C354.548 187.522 354.342 187.093 354.087 186.714C353.836 186.331 353.535 186.004 353.185 185.734C352.839 185.464 352.446 185.259 352.006 185.116C351.565 184.974 351.082 184.903 350.557 184.903C349.695 184.903 348.911 185.126 348.206 185.571C347.5 186.016 346.939 186.672 346.523 187.538C346.106 188.405 345.898 189.468 345.898 190.727C345.898 191.987 346.108 193.05 346.53 193.916C346.951 194.783 347.522 195.438 348.241 195.884C348.961 196.329 349.771 196.551 350.67 196.551C351.504 196.551 352.238 196.374 352.872 196.018C353.511 195.659 354.009 195.152 354.364 194.499C354.723 193.84 354.903 193.066 354.903 192.176L355.443 192.29H351.068V190.727H356.608V192.29C356.608 193.488 356.352 194.529 355.841 195.415C355.334 196.3 354.634 196.987 353.739 197.474C352.848 197.957 351.826 198.199 350.67 198.199C349.383 198.199 348.251 197.896 347.276 197.29C346.305 196.684 345.547 195.822 345.003 194.705C344.463 193.587 344.193 192.261 344.193 190.727C344.193 189.577 344.347 188.542 344.655 187.624C344.967 186.7 345.408 185.914 345.976 185.266C346.544 184.617 347.216 184.12 347.993 183.774C348.769 183.429 349.624 183.256 350.557 183.256C351.324 183.256 352.039 183.372 352.702 183.604C353.369 183.831 353.964 184.155 354.484 184.577C355.01 184.993 355.448 185.493 355.798 186.075C356.149 186.653 356.39 187.295 356.523 188H354.705ZM359.397 198V187.091H361.017V188.739H361.13C361.329 188.199 361.689 187.761 362.21 187.425C362.731 187.089 363.318 186.92 363.971 186.92C364.094 186.92 364.248 186.923 364.433 186.928C364.618 186.932 364.757 186.939 364.852 186.949V188.653C364.795 188.639 364.665 188.618 364.461 188.589C364.262 188.556 364.052 188.54 363.829 188.54C363.299 188.54 362.825 188.651 362.409 188.874C361.997 189.091 361.67 189.394 361.429 189.783C361.192 190.166 361.074 190.604 361.074 191.097V198H359.397ZM370.049 198.256C369.358 198.256 368.73 198.125 368.167 197.865C367.603 197.6 367.156 197.219 366.825 196.722C366.493 196.22 366.327 195.614 366.327 194.903C366.327 194.278 366.451 193.772 366.697 193.384C366.943 192.991 367.272 192.683 367.684 192.46C368.096 192.238 368.55 192.072 369.048 191.963C369.549 191.849 370.054 191.759 370.56 191.693C371.223 191.608 371.761 191.544 372.173 191.501C372.589 191.454 372.892 191.376 373.082 191.267C373.276 191.158 373.373 190.969 373.373 190.699V190.642C373.373 189.941 373.181 189.397 372.798 189.009C372.419 188.62 371.844 188.426 371.072 188.426C370.272 188.426 369.644 188.601 369.19 188.952C368.735 189.302 368.415 189.676 368.231 190.074L366.64 189.506C366.924 188.843 367.303 188.327 367.776 187.957C368.254 187.583 368.775 187.323 369.339 187.176C369.907 187.025 370.466 186.949 371.015 186.949C371.365 186.949 371.768 186.991 372.222 187.077C372.682 187.157 373.124 187.325 373.55 187.581C373.981 187.837 374.339 188.223 374.623 188.739C374.907 189.255 375.049 189.946 375.049 190.812V198H373.373V196.523H373.288C373.174 196.759 372.985 197.013 372.719 197.283C372.454 197.553 372.102 197.782 371.661 197.972C371.221 198.161 370.683 198.256 370.049 198.256ZM370.305 196.75C370.968 196.75 371.526 196.62 371.981 196.359C372.44 196.099 372.786 195.763 373.018 195.351C373.254 194.939 373.373 194.506 373.373 194.051V192.517C373.302 192.602 373.146 192.68 372.904 192.751C372.667 192.818 372.393 192.877 372.08 192.929C371.772 192.976 371.472 193.019 371.178 193.057C370.889 193.09 370.655 193.118 370.475 193.142C370.04 193.199 369.632 193.291 369.254 193.419C368.879 193.542 368.576 193.729 368.344 193.98C368.117 194.226 368.004 194.562 368.004 194.989C368.004 195.571 368.219 196.011 368.65 196.31C369.085 196.603 369.637 196.75 370.305 196.75ZM378.108 202.091V187.091H379.728V188.824H379.926C380.05 188.634 380.22 188.393 380.438 188.099C380.66 187.801 380.978 187.536 381.39 187.304C381.806 187.067 382.37 186.949 383.08 186.949C383.998 186.949 384.808 187.179 385.509 187.638C386.21 188.097 386.757 188.748 387.15 189.591C387.542 190.434 387.739 191.428 387.739 192.574C387.739 193.729 387.542 194.731 387.15 195.578C386.757 196.421 386.212 197.074 385.516 197.538C384.82 197.998 384.017 198.227 383.108 198.227C382.408 198.227 381.846 198.111 381.425 197.879C381.004 197.643 380.679 197.375 380.452 197.077C380.225 196.774 380.05 196.523 379.926 196.324H379.784V202.091H378.108ZM379.756 192.545C379.756 193.369 379.877 194.096 380.118 194.726C380.36 195.351 380.712 195.841 381.176 196.196C381.641 196.546 382.209 196.722 382.881 196.722C383.582 196.722 384.167 196.537 384.635 196.168C385.109 195.794 385.464 195.292 385.701 194.662C385.942 194.027 386.063 193.322 386.063 192.545C386.063 191.778 385.944 191.087 385.708 190.472C385.476 189.851 385.123 189.361 384.65 189.001C384.181 188.637 383.591 188.455 382.881 188.455C382.199 188.455 381.626 188.627 381.162 188.973C380.698 189.314 380.348 189.792 380.111 190.408C379.874 191.018 379.756 191.731 379.756 192.545ZM391.972 191.438V198H390.296V183.455H391.972V188.795H392.114C392.37 188.232 392.753 187.785 393.265 187.453C393.781 187.117 394.467 186.949 395.324 186.949C396.068 186.949 396.719 187.098 397.277 187.396C397.836 187.69 398.269 188.142 398.577 188.753C398.89 189.359 399.046 190.131 399.046 191.068V198H397.37V191.182C397.37 190.315 397.145 189.645 396.695 189.172C396.25 188.694 395.632 188.455 394.841 188.455C394.292 188.455 393.8 188.571 393.364 188.803C392.933 189.035 392.592 189.373 392.341 189.818C392.095 190.263 391.972 190.803 391.972 191.438ZM407.624 193.455H409.555L411.175 195.585L411.601 196.153L414.016 199.364H412.084L410.493 197.233L410.095 196.693L407.624 193.455ZM414.612 190.727C414.612 192.261 414.335 193.587 413.781 194.705C413.227 195.822 412.467 196.684 411.501 197.29C410.536 197.896 409.432 198.199 408.192 198.199C406.951 198.199 405.848 197.896 404.882 197.29C403.916 196.684 403.156 195.822 402.602 194.705C402.048 193.587 401.771 192.261 401.771 190.727C401.771 189.193 402.048 187.867 402.602 186.75C403.156 185.633 403.916 184.771 404.882 184.165C405.848 183.559 406.951 183.256 408.192 183.256C409.432 183.256 410.536 183.559 411.501 184.165C412.467 184.771 413.227 185.633 413.781 186.75C414.335 187.867 414.612 189.193 414.612 190.727ZM412.908 190.727C412.908 189.468 412.697 188.405 412.276 187.538C411.859 186.672 411.293 186.016 410.578 185.571C409.868 185.126 409.072 184.903 408.192 184.903C407.311 184.903 406.513 185.126 405.798 185.571C405.088 186.016 404.522 186.672 404.101 187.538C403.684 188.405 403.476 189.468 403.476 190.727C403.476 191.987 403.684 193.05 404.101 193.916C404.522 194.783 405.088 195.438 405.798 195.884C406.513 196.329 407.311 196.551 408.192 196.551C409.072 196.551 409.868 196.329 410.578 195.884C411.293 195.438 411.859 194.783 412.276 193.916C412.697 193.05 412.908 191.987 412.908 190.727ZM417.574 198V183.455H419.335V196.438H426.097V198H417.574Z" fill="black"/>
<path d="M233.818 136V112.727H241.682C243.5 112.727 244.992 113.038 246.159 113.659C247.326 114.273 248.189 115.117 248.75 116.193C249.311 117.269 249.591 118.492 249.591 119.864C249.591 121.235 249.311 122.451 248.75 123.511C248.189 124.572 247.33 125.405 246.17 126.011C245.011 126.61 243.53 126.909 241.727 126.909H235.364V124.364H241.636C242.879 124.364 243.879 124.182 244.636 123.818C245.402 123.455 245.955 122.939 246.295 122.273C246.644 121.598 246.818 120.795 246.818 119.864C246.818 118.932 246.644 118.117 246.295 117.42C245.947 116.723 245.39 116.186 244.625 115.807C243.86 115.42 242.848 115.227 241.591 115.227H236.636V136H233.818ZM244.773 125.545L250.5 136H247.227L241.591 125.545H244.773ZM254.287 136V112.727H268.332V115.227H257.105V123.091H267.605V125.591H257.105V133.5H268.514V136H254.287ZM286.139 118.545C286.003 117.394 285.45 116.5 284.48 115.864C283.51 115.227 282.321 114.909 280.912 114.909C279.882 114.909 278.98 115.076 278.207 115.409C277.442 115.742 276.844 116.201 276.412 116.784C275.988 117.367 275.776 118.03 275.776 118.773C275.776 119.394 275.923 119.928 276.219 120.375C276.522 120.814 276.908 121.182 277.378 121.477C277.848 121.765 278.34 122.004 278.855 122.193C279.37 122.375 279.844 122.523 280.276 122.636L282.639 123.273C283.245 123.432 283.92 123.652 284.662 123.932C285.412 124.212 286.128 124.595 286.81 125.08C287.499 125.557 288.067 126.17 288.514 126.92C288.961 127.67 289.185 128.591 289.185 129.682C289.185 130.939 288.855 132.076 288.196 133.091C287.545 134.106 286.59 134.913 285.332 135.511C284.082 136.11 282.563 136.409 280.776 136.409C279.109 136.409 277.666 136.14 276.446 135.602C275.234 135.064 274.279 134.314 273.582 133.352C272.893 132.39 272.503 131.273 272.412 130H275.321C275.397 130.879 275.692 131.606 276.207 132.182C276.73 132.75 277.389 133.174 278.185 133.455C278.988 133.727 279.851 133.864 280.776 133.864C281.851 133.864 282.817 133.689 283.673 133.341C284.529 132.985 285.207 132.492 285.707 131.864C286.207 131.227 286.457 130.485 286.457 129.636C286.457 128.864 286.241 128.235 285.81 127.75C285.378 127.265 284.81 126.871 284.105 126.568C283.401 126.265 282.639 126 281.821 125.773L278.957 124.955C277.139 124.432 275.7 123.686 274.639 122.716C273.579 121.746 273.048 120.477 273.048 118.909C273.048 117.606 273.401 116.47 274.105 115.5C274.817 114.523 275.772 113.765 276.969 113.227C278.173 112.682 279.518 112.409 281.003 112.409C282.503 112.409 283.836 112.678 285.003 113.216C286.17 113.746 287.094 114.473 287.776 115.398C288.465 116.322 288.829 117.371 288.866 118.545H286.139ZM292.545 115.227V112.727H310V115.227H302.682V136H299.864V115.227H292.545Z" fill="black"/>
</svg>
